<svg width="62" height="62" viewBox="0 0 62 62" fill="none" xmlns="http://www.w3.org/2000/svg">
<circle cx="31" cy="31" r="31" fill="#302F2F"/>
<path d="M20.8889 41.1111H22.9472L37.0667 26.9917L35.0083 24.9333L20.8889 39.0528V41.1111ZM18 44V37.8611L37.0667 18.8306C37.3556 18.5657 37.6745 18.3611 38.0236 18.2167C38.3727 18.0722 38.7398 18 39.125 18C39.5102 18 39.8833 18.0722 40.2444 18.2167C40.6056 18.3611 40.9185 18.5778 41.1833 18.8667L43.1694 20.8889C43.4583 21.1537 43.669 21.4667 43.8014 21.8278C43.9338 22.1889 44 22.55 44 22.9111C44 23.2963 43.9338 23.6634 43.8014 24.0125C43.669 24.3616 43.4583 24.6806 43.1694 24.9694L24.1389 44H18ZM36.0194 25.9806L35.0083 24.9333L37.0667 26.9917L36.0194 25.9806Z" fill="white"/>
</svg>
