<svg width="62" height="62" viewBox="0 0 62 62" fill="none" xmlns="http://www.w3.org/2000/svg">
<circle cx="31" cy="31" r="31" fill="#302F2F"/>
<path d="M25 44V32.105C23.8667 31.8017 22.9167 31.195 22.15 30.285C21.3833 29.375 21 28.3133 21 27.1V18H23.6667V27.1H25V18H27.6667V27.1H29V18H31.6667V27.1C31.6667 28.3133 31.2833 29.375 30.5167 30.285C29.75 31.195 28.8 31.8017 27.6667 32.105V44H25ZM38.3333 44V33.6H34.3333V24.5C34.3333 22.7017 34.9833 21.1687 36.2833 19.9012C37.5833 18.6337 39.1556 18 41 18V44H38.3333Z" fill="white"/>
</svg>
