<svg width="30" height="30" viewBox="0 0 30 30" fill="none" xmlns="http://www.w3.org/2000/svg">
<path d="M5.38741 11.9512L8.30559 13.1843C8.65477 12.4868 9.01643 11.8142 9.39055 11.1664C9.76468 10.5187 10.1762 9.87102 10.6252 9.2233L8.53006 8.81225L5.38741 11.9512ZM10.7 15.0527L14.965 19.2753C16.0126 18.8767 17.135 18.2664 18.3322 17.4443C19.5294 16.6222 20.6517 15.688 21.6993 14.6417C23.4452 12.8978 24.8108 10.9609 25.796 8.83094C26.7812 6.70095 27.2114 4.73913 27.0867 2.94545C25.2909 2.82089 23.3205 3.25063 21.1755 4.23466C19.0305 5.21868 17.0851 6.58262 15.3391 8.32647C14.2916 9.37278 13.3563 10.4938 12.5332 11.6896C11.7101 12.8854 11.0991 14.0064 10.7 15.0527ZM17.3594 12.6238C16.7858 12.0508 16.4989 11.3471 16.4989 10.5125C16.4989 9.67795 16.7858 8.97418 17.3594 8.40121C17.9331 7.82823 18.6439 7.54174 19.4919 7.54174C20.34 7.54174 21.0508 7.82823 21.6245 8.40121C22.1981 8.97418 22.4849 9.67795 22.4849 10.5125C22.4849 11.3471 22.1981 12.0508 21.6245 12.6238C21.0508 13.1968 20.34 13.4833 19.4919 13.4833C18.6439 13.4833 17.9331 13.1968 17.3594 12.6238ZM18.0703 24.619L21.2129 21.4801L20.8014 19.3874C20.1529 19.8359 19.5044 20.2407 18.8559 20.6019C18.2074 20.9631 17.534 21.3181 16.8356 21.6669L18.0703 24.619ZM29.7804 0.217579C30.2543 3.23194 29.9612 6.16534 28.9012 9.01778C27.8412 11.8702 26.0142 14.5919 23.4203 17.1827L24.1685 20.8822C24.2683 21.3804 24.2433 21.8662 24.0937 22.3395C23.944 22.8129 23.6946 23.2239 23.3454 23.5727L17.0601 29.8505L13.9175 22.489L7.51992 16.099L0.14965 12.9601L6.39755 6.68227C6.74673 6.3335 7.1645 6.08438 7.65087 5.93491C8.13723 5.78543 8.62983 5.76052 9.12866 5.86017L12.8325 6.60753C15.4264 4.01667 18.1451 2.18564 20.9884 1.11441C23.8318 0.0431944 26.7624 -0.255751 29.7804 0.217579ZM2.80594 20.8448C3.6789 19.9729 4.74516 19.5307 6.00472 19.5182C7.26427 19.5058 8.33053 19.9355 9.20349 20.8074C10.0764 21.6794 10.5067 22.7444 10.4942 24.0024C10.4818 25.2605 10.039 26.3255 9.16608 27.1974C8.54253 27.8202 7.50122 28.3558 6.04213 28.8042C4.58304 29.2526 2.569 29.6512 0 30C0.349184 27.4341 0.748251 25.4224 1.1972 23.965C1.64615 22.5077 2.1824 21.4676 2.80594 20.8448ZM4.93846 22.9374C4.68904 23.1865 4.43962 23.6412 4.19021 24.3014C3.94079 24.9615 3.7662 25.6279 3.66643 26.3006C4.33986 26.2009 5.00705 26.0327 5.668 25.7961C6.32896 25.5594 6.78414 25.3165 7.03356 25.0674C7.33286 24.7685 7.49498 24.4072 7.51992 23.9837C7.54487 23.5602 7.40769 23.199 7.10839 22.9C6.80908 22.6011 6.44743 22.4579 6.02342 22.4703C5.59941 22.4828 5.23776 22.6385 4.93846 22.9374Z" fill="#302F2F"/>
</svg>
