<svg width="393" height="122" viewBox="0 0 393 122" fill="none" xmlns="http://www.w3.org/2000/svg">
<path d="M196.5 0.5C188.798 0.5 181.531 2.65205 175.122 6.462C174.297 6.95252 173.471 7.44711 172.643 7.94258C162.089 14.2615 151.293 20.7247 139.258 20.7247H13.1071C6.35288 20.7247 1 27.0581 1 34.7079V94.0337C1 109.13 11.5496 121.5 24.7143 121.5H368.286C381.45 121.5 392 109.13 392 94.0337V34.7079C392 27.0581 386.647 20.7247 379.893 20.7247H253.742C241.707 20.7247 230.911 14.2615 220.357 7.94258C219.529 7.4471 218.703 6.95252 217.878 6.462C211.469 2.65205 204.202 0.5 196.5 0.5Z" fill="#0A0A0A" stroke="#2E2E2E"/>
</svg>
