<svg width="20" height="18" viewBox="0 0 20 18" fill="none" xmlns="http://www.w3.org/2000/svg">
<path d="M10 18L8.55 16.7248C6.86667 15.2371 5.475 13.9537 4.375 12.8747C3.275 11.7956 2.4 10.827 1.75 9.96867C1.1 9.11035 0.645833 8.32153 0.3875 7.60218C0.129167 6.88283 0 6.14714 0 5.3951C0 3.85831 0.525 2.57493 1.575 1.54496C2.625 0.514986 3.93333 0 5.5 0C6.36667 0 7.19167 0.179837 7.975 0.53951C8.75833 0.899183 9.43333 1.40599 10 2.05995C10.5667 1.40599 11.2417 0.899183 12.025 0.53951C12.8083 0.179837 13.6333 0 14.5 0C16.0667 0 17.375 0.514986 18.425 1.54496C19.475 2.57493 20 3.85831 20 5.3951C20 6.14714 19.8708 6.88283 19.6125 7.60218C19.3542 8.32153 18.9 9.11035 18.25 9.96867C17.6 10.827 16.725 11.7956 15.625 12.8747C14.525 13.9537 13.1333 15.2371 11.45 16.7248L10 18ZM10 15.3515C11.6 13.9455 12.9167 12.7398 13.95 11.7343C14.9833 10.7289 15.8 9.85422 16.4 9.11035C17 8.36649 17.4167 7.70436 17.65 7.12398C17.8833 6.5436 18 5.9673 18 5.3951C18 4.41417 17.6667 3.59673 17 2.94278C16.3333 2.28883 15.5 1.96185 14.5 1.96185C13.7167 1.96185 12.9917 2.17847 12.325 2.61172C11.6583 3.04496 11.2 3.59673 10.95 4.26703H9.05C8.8 3.59673 8.34167 3.04496 7.675 2.61172C7.00833 2.17847 6.28333 1.96185 5.5 1.96185C4.5 1.96185 3.66667 2.28883 3 2.94278C2.33333 3.59673 2 4.41417 2 5.3951C2 5.9673 2.11667 6.5436 2.35 7.12398C2.58333 7.70436 3 8.36649 3.6 9.11035C4.2 9.85422 5.01667 10.7289 6.05 11.7343C7.08333 12.7398 8.4 13.9455 10 15.3515Z" fill="white"/>
</svg>
