<svg width="62" height="62" viewBox="0 0 62 62" fill="none" xmlns="http://www.w3.org/2000/svg">
<circle cx="31" cy="31" r="31" fill="#302F2F" fill-opacity="0.4"/>
<path d="M30.5 39.5556C32.4375 39.5556 34.0844 38.875 35.4406 37.5139C36.7969 36.1528 37.475 34.5 37.475 32.5556C37.475 30.6111 36.7969 28.9583 35.4406 27.5972C34.0844 26.2361 32.4375 25.5556 30.5 25.5556C28.5625 25.5556 26.9156 26.2361 25.5594 27.5972C24.2031 28.9583 23.525 30.6111 23.525 32.5556C23.525 34.5 24.2031 36.1528 25.5594 37.5139C26.9156 38.875 28.5625 39.5556 30.5 39.5556ZM30.5 36.4444C29.415 36.4444 28.4979 36.0685 27.7487 35.3167C26.9996 34.5648 26.625 33.6444 26.625 32.5556C26.625 31.4667 26.9996 30.5463 27.7487 29.7944C28.4979 29.0426 29.415 28.6667 30.5 28.6667C31.585 28.6667 32.5021 29.0426 33.2512 29.7944C34.0004 30.5463 34.375 31.4667 34.375 32.5556C34.375 33.6444 34.0004 34.5648 33.2512 35.3167C32.5021 36.0685 31.585 36.4444 30.5 36.4444ZM18.1 45C17.2475 45 16.5177 44.6954 15.9106 44.0861C15.3035 43.4769 15 42.7444 15 41.8889V23.2222C15 22.3667 15.3035 21.6343 15.9106 21.025C16.5177 20.4157 17.2475 20.1111 18.1 20.1111H22.9825L25.85 17H35.15L38.0175 20.1111H42.9C43.7525 20.1111 44.4823 20.4157 45.0894 21.025C45.6965 21.6343 46 22.3667 46 23.2222V41.8889C46 42.7444 45.6965 43.4769 45.0894 44.0861C44.4823 44.6954 43.7525 45 42.9 45H18.1ZM18.1 41.8889H42.9V23.2222H36.6225L33.7938 20.1111H27.2063L24.3775 23.2222H18.1V41.8889Z" fill="white"/>
</svg>
