<svg width="25" height="25" viewBox="0 0 25 25" fill="none" xmlns="http://www.w3.org/2000/svg">
<path d="M9.0796 25L8.58209 21C8.3126 20.8958 8.05867 20.7708 7.82027 20.625C7.58188 20.4792 7.34867 20.3229 7.12065 20.1562L3.4204 21.7188L0 15.7812L3.20274 13.3438C3.18201 13.1979 3.17164 13.0573 3.17164 12.9219V12.0781C3.17164 11.9427 3.18201 11.8021 3.20274 11.6562L0 9.21875L3.4204 3.28125L7.12065 4.84375C7.34867 4.67708 7.58706 4.52083 7.83582 4.375C8.08458 4.22917 8.33333 4.10417 8.58209 4L9.0796 0H15.9204L16.4179 4C16.6874 4.10417 16.9413 4.22917 17.1797 4.375C17.4181 4.52083 17.6513 4.67708 17.8794 4.84375L21.5796 3.28125L25 9.21875L21.7973 11.6562C21.818 11.8021 21.8284 11.9427 21.8284 12.0781V12.9219C21.8284 13.0573 21.8076 13.1979 21.7662 13.3438L24.9689 15.7812L21.5485 21.7188L17.8794 20.1562C17.6513 20.3229 17.4129 20.4792 17.1642 20.625C16.9154 20.7708 16.6667 20.8958 16.4179 21L15.9204 25H9.0796ZM11.2562 22.5H13.7127L14.148 19.1875C14.7906 19.0208 15.3866 18.776 15.9359 18.4531C16.4853 18.1302 16.988 17.7396 17.444 17.2812L20.5224 18.5625L21.7351 16.4375L19.0609 14.4062C19.1646 14.1146 19.2371 13.8073 19.2786 13.4844C19.3201 13.1615 19.3408 12.8333 19.3408 12.5C19.3408 12.1667 19.3201 11.8385 19.2786 11.5156C19.2371 11.1927 19.1646 10.8854 19.0609 10.5938L21.7351 8.5625L20.5224 6.4375L17.444 7.75C16.988 7.27083 16.4853 6.86979 15.9359 6.54688C15.3866 6.22396 14.7906 5.97917 14.148 5.8125L13.7438 2.5H11.2873L10.852 5.8125C10.2094 5.97917 9.61339 6.22396 9.06405 6.54688C8.51472 6.86979 8.01202 7.26042 7.55597 7.71875L4.47761 6.4375L3.26493 8.5625L5.93905 10.5625C5.83541 10.875 5.76285 11.1875 5.72139 11.5C5.67993 11.8125 5.6592 12.1458 5.6592 12.5C5.6592 12.8333 5.67993 13.1562 5.72139 13.4688C5.76285 13.7812 5.83541 14.0938 5.93905 14.4062L3.26493 16.4375L4.47761 18.5625L7.55597 17.25C8.01202 17.7292 8.51472 18.1302 9.06405 18.4531C9.61339 18.776 10.2094 19.0208 10.852 19.1875L11.2562 22.5ZM12.5622 16.875C13.7645 16.875 14.7906 16.4479 15.6405 15.5938C16.4905 14.7396 16.9154 13.7083 16.9154 12.5C16.9154 11.2917 16.4905 10.2604 15.6405 9.40625C14.7906 8.55208 13.7645 8.125 12.5622 8.125C11.3391 8.125 10.3078 8.55208 9.46828 9.40625C8.62873 10.2604 8.20895 11.2917 8.20895 12.5C8.20895 13.7083 8.62873 14.7396 9.46828 15.5938C10.3078 16.4479 11.3391 16.875 12.5622 16.875Z" fill="white"/>
</svg>
